<svg width="325.000000" height="336.000092" viewBox="0 0 325 336" fill="none" xmlns="http://www.w3.org/2000/svg" xmlns:xlink="http://www.w3.org/1999/xlink">
	<desc>
			Created with Pixso.
	</desc>
	<defs/>
	<path id="XMLID_9_" d="M290.16 145.48L37.93 181.89C27 183.49 15.94 179.84 8.56 171.8C3.24 165.95 0 158.2 0 149.72C0 132.17 13.87 117.84 31.43 116.97C32.61 116.97 33.65 116.82 34.83 116.67L287.06 80.41C297.99 78.8 309.06 82.46 316.44 90.5C321.75 96.35 325 104.1 325 112.58C325 130.13 311.12 144.45 293.56 145.33C292.53 145.19 291.34 145.33 290.16 145.48Z" fill="#FFFFFF" fill-opacity="0.050000" fill-rule="nonzero"/>
	<path id="XMLID_5_" d="M263.89 231.74L61.1 260.99C42.8 260.99 28.04 246.37 28.04 228.24C28.04 210.11 42.8 195.48 61.1 195.48L263.89 166.24C282.19 166.24 296.95 180.86 296.95 198.99C296.95 216.98 282.19 231.74 263.89 231.74Z" fill="#FFFFFF" fill-opacity="0.050000" fill-rule="nonzero"/>
	<path id="XMLID_4_" d="M210.32 321.37L114.53 336C96.23 336 81.47 321.37 81.47 303.24C81.47 285.11 96.23 270.49 114.53 270.49L210.32 255.87C228.62 255.87 243.38 270.49 243.38 288.62C243.52 306.75 228.62 321.37 210.32 321.37Z" fill="#FFFFFF" fill-opacity="0.050000" fill-rule="nonzero"/>
	<path id="XMLID_3_" d="M195.56 76.76L195.56 32.75C195.56 14.62 180.8 0 162.5 0C144.19 0 129.43 14.62 129.43 32.75L129.43 86.26L195.56 76.76Z" fill="#FFFFFF" fill-opacity="0.050000" fill-rule="nonzero"/>
</svg>
