<svg width="47.999985" height="45.942871" viewBox="0 0 48 45.9429" fill="none" xmlns="http://www.w3.org/2000/svg" xmlns:xlink="http://www.w3.org/1999/xlink">
	<desc>
			Created with Pixso.
	</desc>
	<defs/>
	<path id="Vector" d="M11.18 0.65C11.82 1.53 13.62 5.35 14.65 7.57C14.81 7.92 14.38 8.23 14.1 7.97C12.32 6.29 9.27 3.37 8.63 2.48C8.13 1.78 8.29 0.8 8.99 0.29C9.69 -0.22 10.67 -0.06 11.18 0.65Z" fill="#FFF082" fill-opacity="1.000000" fill-rule="nonzero"/>
	<path id="Vector" d="M36.81 0.65C36.17 1.53 34.37 5.35 33.34 7.57C33.18 7.92 33.61 8.23 33.89 7.97C35.67 6.29 38.72 3.37 39.36 2.48C39.86 1.78 39.7 0.8 39 0.29C38.3 -0.22 37.32 -0.06 36.81 0.65Z" fill="#FFF082" fill-opacity="1.000000" fill-rule="nonzero"/>
	<path id="Vector" d="M46.91 26.68C45.87 26.34 41.69 25.78 39.26 25.47C38.88 25.43 38.71 25.94 39.05 26.13C41.19 27.31 44.9 29.32 45.94 29.66C46.76 29.93 47.65 29.48 47.92 28.66C48.19 27.83 47.74 26.95 46.91 26.68Z" fill="#FFF082" fill-opacity="1.000000" fill-rule="nonzero"/>
	<path id="Vector" d="M1.08 26.68C2.12 26.34 6.3 25.78 8.73 25.47C9.11 25.43 9.28 25.94 8.94 26.13C6.8 27.31 3.09 29.32 2.05 29.66C1.23 29.93 0.34 29.48 0.07 28.66C-0.2 27.83 0.25 26.95 1.08 26.68Z" fill="#FFF082" fill-opacity="1.000000" fill-rule="nonzero"/>
	<path id="Vector" d="M22.48 44.37C22.48 43.28 23.24 39.13 23.7 36.72C23.77 36.34 24.31 36.34 24.39 36.72C24.85 39.13 25.61 43.28 25.61 44.37C25.61 45.24 24.91 45.94 24.04 45.94C23.18 45.94 22.48 45.24 22.48 44.37Z" fill="#FFF082" fill-opacity="1.000000" fill-rule="nonzero"/>
</svg>
